<?xml version="1.0" standalone="no"?>
<!DOCTYPE svg PUBLIC "-//W3C//DTD SVG 20010904//EN"
 "http://www.w3.org/TR/2001/REC-SVG-20010904/DTD/svg10.dtd">
<svg version="1.0" xmlns="http://www.w3.org/2000/svg"
 width="600.000000pt" height="600.000000pt" viewBox="0 0 600.000000 600.000000"
 preserveAspectRatio="xMidYMid meet">
<metadata>
Created by potrace 1.11, written by Peter Selinger 2001-2013
</metadata>
<g transform="translate(0.000000,600.000000) scale(0.100000,-0.100000)"
fill="#000000" stroke="none">
<path d="M1920 5859 c0 -11 -29 -219 -44 -319 -4 -22 -12 -74 -31 -205 -4 -22
-8 -49 -10 -60 -2 -11 -6 -45 -10 -75 -7 -53 -10 -56 -134 -180 -173 -170
-271 -304 -371 -506 -43 -89 -106 -241 -115 -284 -2 -8 -15 -62 -29 -120 -14
-58 -27 -123 -30 -145 -3 -22 -8 -60 -12 -85 -4 -25 -8 -776 -8 -1669 -2
-1849 -9 -1693 84 -1794 67 -74 130 -101 230 -100 55 0 88 6 123 23 62 28 131
96 160 157 21 46 22 60 25 401 l3 352 124 0 125 0 0 -325 c0 -195 4 -344 11
-375 15 -68 64 -137 130 -182 59 -40 87 -49 164 -53 133 -6 263 87 306 220 9
29 13 130 14 375 l0 335 370 3 c230 1 371 -1 375 -7 3 -6 5 -151 5 -323 -1
-209 3 -330 10 -366 58 -255 398 -323 554 -110 57 78 61 107 61 475 l0 333
125 0 125 0 0 -331 c0 -269 3 -341 15 -384 39 -133 158 -220 300 -220 123 1
226 68 282 183 l27 57 1 345 c0 337 1 345 20 347 11 1 92 4 180 7 178 4 193 6
285 35 141 45 296 159 392 289 58 78 108 192 129 290 16 78 18 137 16 557 -2
455 -3 471 -23 515 -29 62 -84 122 -137 148 -168 84 -357 20 -435 -148 l-26
-55 -1 -445 c-1 -463 -1 -465 -44 -514 -36 -41 -71 -49 -209 -51 -73 0 -136 1
-140 4 -4 4 -8 422 -8 931 0 1061 -3 1121 -49 1305 -9 33 -18 70 -20 82 -13
59 -72 209 -121 309 -44 91 -160 283 -183 304 -4 3 -33 38 -66 79 -32 40 -103
114 -156 165 -104 98 -97 83 -113 211 -2 11 -6 40 -10 65 -4 25 -9 56 -11 70
-2 14 -9 61 -15 105 -6 44 -13 91 -15 105 -5 36 -17 112 -20 131 -2 9 -6 40
-10 70 -7 58 -12 69 -23 53 -4 -6 -96 -104 -205 -216 l-198 -205 -106 33
c-181 58 -358 85 -553 85 -82 1 -221 -9 -264 -17 -12 -2 -48 -9 -81 -15 -64
-11 -204 -49 -272 -73 l-41 -14 -179 185 c-98 102 -180 188 -183 192 -3 3 -18
17 -33 30 -19 17 -27 20 -27 10z"/>
</g>
</svg>
