<?xml version="1.0" standalone="no"?>
<!DOCTYPE svg PUBLIC "-//W3C//DTD SVG 20010904//EN"
 "http://www.w3.org/TR/2001/REC-SVG-20010904/DTD/svg10.dtd">
<svg version="1.0" xmlns="http://www.w3.org/2000/svg"
 width="300.000000pt" height="300.000000pt" viewBox="0 0 300.000000 300.000000"
 preserveAspectRatio="xMidYMid meet">
<metadata>
Created by potrace 1.11, written by Peter Selinger 2001-2013
</metadata>
<g transform="translate(0.000000,300.000000) scale(0.100000,-0.100000)"
fill="#000000" stroke="none">
<path d="M397 2602 l-157 -157 157 -158 158 -157 -158 -158 -157 -157 157
-158 158 -157 -158 -158 -157 -157 157 -158 158 -157 -158 -158 -157 -157 158
-158 157 -157 158 157 157 158 157 -158 158 -157 157 157 158 158 158 -158
157 -157 158 157 157 158 158 -158 157 -157 158 158 157 157 -157 158 -158
157 158 157 157 158 -157 157 -158 158 158 157 157 158 -157 157 -158 158 158
158 157 157 -158 158 -157 157 -158 -157 -157 -158 -158 158 -157 157 -158
-157 -157 -158 -158 158 -157 157 -158 -157 -157 -158 -158 158 -157 157 -158
-158z m633 -317 l155 -155 -158 0 -157 0 0 -157 0 -158 -157 157 -158 158 155
155 c85 85 157 155 160 155 3 0 75 -70 160 -155z m630 0 l155 -155 -315 0
-315 0 155 155 c85 85 157 155 160 155 3 0 75 -70 160 -155z m630 0 l155 -155
-158 -158 -157 -157 0 158 0 157 -157 0 -158 0 155 155 c85 85 157 155 160
155 3 0 75 -70 160 -155z m-860 -412 c0 -11 -144 -302 -150 -303 -3 0 -40 70
-83 155 l-77 155 155 0 c85 0 155 -3 155 -7z m450 -152 l0 -159 -122 62 c-68
35 -139 71 -158 81 l-34 18 154 78 c85 43 156 78 158 78 1 1 2 -70 2 -158z
m-1010 -223 l0 -313 -157 157 -158 158 155 155 c85 85 156 155 157 155 2 0 3
-141 3 -312z m1417 -155 l-157 -158 0 315 0 315 157 -158 158 -157 -158 -157z
m-1012 16 c77 -39 143 -74 147 -77 4 -4 -62 -42 -147 -85 l-155 -77 0 155 c0
85 3 155 8 155 4 0 70 -32 147 -71z m452 -237 c-82 -1 -152 0 -155 3 -5 5 121
266 142 293 7 10 29 -25 87 -140 l77 -153 -151 -3z m-699 -252 l157 0 -158
-157 -157 -158 -157 157 -158 158 155 155 155 155 3 -155 3 -155 157 0z m1259
-157 l-157 -158 -157 158 -158 157 158 0 157 0 0 157 0 158 157 -158 158 -157
-158 -157z m-630 0 l-157 -158 -157 158 -158 157 315 0 315 0 -158 -157z"/>
</g>
</svg>
